HIERARCHY
ROOT hip
{
  OFFSET 0 0 0
  CHANNELS 6 Xposition Yposition Zposition Zrotation Yrotation Xrotation
  JOINT abdomen
  {
    OFFSET 0 20.6881 -0.73152
    CHANNELS 3 Zrotation Xrotation Yrotation
    JOINT chest
    {
      OFFSET 0 11.7043 -0.48768
      CHANNELS 3 Zrotation Xrotation Yrotation
      JOINT neck
      {
        OFFSET 0 22.1894 -2.19456
        CHANNELS 3 Zrotation Xrotation Yrotation
        JOINT head
        {
          OFFSET -0.24384 7.07133 1.2192
          CHANNELS 3 Zrotation Xrotation Yrotation
          JOINT leftEye
          {
            OFFSET 4.14528 8.04674 8.04672
            CHANNELS 3 Zrotation Xrotation Yrotation
            End Site
            {
              OFFSET 1 0 0
            }
          }
          JOINT rightEye
          {
            OFFSET -3.6576 8.04674 8.04672
            CHANNELS 3 Zrotation Xrotation Yrotation
            End Site
            {
              OFFSET 1 0 0
            }
          }
        }
      }
      JOINT rCollar
      {
        OFFSET -2.68224 19.2634 -4.8768
        CHANNELS 3 Zrotation Xrotation Yrotation
        JOINT rShldr
        {
          OFFSET -8.77824 -1.95073 1.46304
          CHANNELS 3 Zrotation Xrotation Yrotation
          JOINT rForeArm
          {
            OFFSET -28.1742 -1.7115 0.48768
            CHANNELS 3 Zrotation Xrotation Yrotation
            JOINT rHand
            {
              OFFSET -22.5879 0.773209 7.07136
              CHANNELS 3 Zrotation Xrotation Yrotation
              JOINT rThumb1
              {
                OFFSET -1.2192 -0.487915 3.41376
                CHANNELS 3 Zrotation Xrotation Yrotation
                JOINT rThumb2
                {
                  OFFSET -3.37035 -0.52449 3.41376
                  CHANNELS 3 Zrotation Xrotation Yrotation
                  End Site
                  {
                    OFFSET -1.78271 -1.18214 1.43049
                  }
                }
              }
              JOINT rIndex1
              {
                OFFSET -7.75947 0.938293 5.60832
                CHANNELS 3 Zrotation Xrotation Yrotation
                JOINT rIndex2
                {
                  OFFSET -2.54057 -0.884171 1.56538
                  CHANNELS 3 Zrotation Xrotation Yrotation
                  End Site
                  {
                    OFFSET -1.62519 -0.234802 1.16502
                  }
                }
              }
              JOINT rMid1
              {
                OFFSET -8.24714 1.18213 3.41376
                CHANNELS 3 Zrotation Xrotation Yrotation
                JOINT rMid2
                {
                  OFFSET -3.10165 -0.590103 1.0647
                  CHANNELS 3 Zrotation Xrotation Yrotation
                  End Site
                  {
                    OFFSET -2.48547 -0.328903 0.83742
                  }
                }
              }
              JOINT rRing1
              {
                OFFSET -8.82822 0.546677 1.51678
                CHANNELS 3 Zrotation Xrotation Yrotation
                JOINT rRing2
                {
                  OFFSET -2.60934 -0.819778 -0.0198488
                  CHANNELS 3 Zrotation Xrotation Yrotation
                  End Site
                  {
                    OFFSET -2.33842 -0.294052 0.168128
                  }
                }
              }
              JOINT rPinky1
              {
                OFFSET -8.27202 -0.0477905 -0.4584
                CHANNELS 3 Zrotation Xrotation Yrotation
                JOINT rPinky2
                {
                  OFFSET -1.82734 -0.647385 -0.700984
                  CHANNELS 3 Zrotation Xrotation Yrotation
                  End Site
                  {
                    OFFSET -1.69225 -0.51767 -0.607171
                  }
                }
              }
            }
          }
        }
      }
      JOINT lCollar
      {
        OFFSET 2.68224 19.2634 -4.8768
        CHANNELS 3 Zrotation Xrotation Yrotation
        JOINT lShldr
        {
          OFFSET 8.77824 -1.95073 1.46304
          CHANNELS 3 Zrotation Xrotation Yrotation
          JOINT lForeArm
          {
            OFFSET 28.1742 -1.7115 0.48768
            CHANNELS 3 Zrotation Xrotation Yrotation
            JOINT lHand
            {
              OFFSET 22.5879 0.773209 7.07136
              CHANNELS 3 Zrotation Xrotation Yrotation
              JOINT lThumb1
              {
                OFFSET 1.2192 -0.487915 3.41376
                CHANNELS 3 Zrotation Xrotation Yrotation
                JOINT lThumb2
                {
                  OFFSET 3.37035 -0.52449 3.41376
                  CHANNELS 3 Zrotation Xrotation Yrotation
                  End Site
                  {
                    OFFSET 1.78271 -1.18214 1.43049
                  }
                }
              }
              JOINT lIndex1
              {
                OFFSET 7.75947 0.938293 5.60832
                CHANNELS 3 Zrotation Xrotation Yrotation
                JOINT lIndex2
                {
                  OFFSET 2.54057 -0.884171 1.56538
                  CHANNELS 3 Zrotation Xrotation Yrotation
                  End Site
                  {
                    OFFSET 1.62519 -0.234802 1.16502
                  }
                }
              }
              JOINT lMid1
              {
                OFFSET 8.24714 1.18213 3.41376
                CHANNELS 3 Zrotation Xrotation Yrotation
                JOINT lMid2
                {
                  OFFSET 3.10165 -0.590103 1.0647
                  CHANNELS 3 Zrotation Xrotation Yrotation
                  End Site
                  {
                    OFFSET 2.48547 -0.328903 0.83742
                  }
                }
              }
              JOINT lRing1
              {
                OFFSET 8.82822 0.546677 1.51678
                CHANNELS 3 Zrotation Xrotation Yrotation
                JOINT lRing2
                {
                  OFFSET 2.60934 -0.819778 -0.0198488
                  CHANNELS 3 Zrotation Xrotation Yrotation
                  End Site
                  {
                    OFFSET 2.33842 -0.294052 0.168128
                  }
                }
              }
              JOINT lPinky1
              {
                OFFSET 8.27202 -0.0477905 -0.4584
                CHANNELS 3 Zrotation Xrotation Yrotation
                JOINT lPinky2
                {
                  OFFSET 1.82734 -0.647385 -0.700984
                  CHANNELS 3 Zrotation Xrotation Yrotation
                  End Site
                  {
                    OFFSET 1.69225 -0.51767 -0.607171
                  }
                }
              }
            }
          }
        }
      }
    }
  }
  JOINT rButtock
  {
    OFFSET -8.77824 4.35084 1.2192
    CHANNELS 3 Zrotation Xrotation Yrotation
    JOINT rThigh
    {
      OFFSET 0 -1.70687 -2.19456
      CHANNELS 3 Zrotation Xrotation Yrotation
      JOINT rShin
      {
        OFFSET 0 -36.8199 0.73152
        CHANNELS 3 Zrotation Xrotation Yrotation
        JOINT rFoot
        {
          OFFSET 0.73152 -45.1104 -5.12064
          CHANNELS 3 Zrotation Xrotation Yrotation
          End Site
          {
            OFFSET -1.1221 -3.69964 12.103
          }
        }
      }
    }
  }
  JOINT lButtock
  {
    OFFSET 8.77824 4.35084 1.2192
    CHANNELS 3 Zrotation Xrotation Yrotation
    JOINT lThigh
    {
      OFFSET 0 -1.70687 -2.19456
      CHANNELS 3 Zrotation Xrotation Yrotation
      JOINT lShin
      {
        OFFSET 0 -36.8199 0.73152
        CHANNELS 3 Zrotation Xrotation Yrotation
        JOINT lFoot
        {
          OFFSET -0.73152 -45.1104 -5.12064
          CHANNELS 3 Zrotation Xrotation Yrotation
          End Site
          {
            OFFSET 1.1221 -3.69964 12.103
          }
        }
      }
    }
  }
}
MOTION
Frames:	4
Frame Time:	0.00833333
-132.74 85.2982 10.8101 0.0 0.0 0.0 0.984355 -0.00436093 0.0272514 0.271545 -0.00455347 0.0470445 2.67302e-14 0.0 -1.24241e-17 7.99953e-14 3.18055e-15 -2.48481e-17 -0.0 0.0 0.0 -0.0 0.0 0.0 1.34667e-14 -1.57242e-17 1.49089e-16 2.82344e-13 -8.19987e-16 2.18663e-15 4.81501e-12 -1.45411e-12 -1.59028e-14 5.50992e-11 1.36856e-12 1.11319e-13 1.29972e-10 -1.81196e-13 2.13097e-13 2.24457e-10 -3.08514e-13 3.66559e-13 1.29979e-10 -1.77316e-13 1.97194e-13 7.73091 5.47488 0.417314 1.29973e-10 -1.80298e-13 2.16278e-13 2.90554 0.965183 0.102902 1.29981e-10 -1.80695e-13 2.15483e-13 10.2786 0.731801 0.0259123 1.29969e-10 -1.83279e-13 2.29e-13 2.22167 -0.733487 -0.20892 1.33701e-14 -1.55301e-17 -1.49089e-16 2.77601e-13 -8.38623e-16 0.0 4.81128e-12 1.42727e-12 -4.45278e-14 5.50963e-11 -1.51633e-12 1.52667e-13 1.29961e-10 -1.89044e-13 2.16278e-13 2.24435e-10 -3.27597e-13 3.68149e-13 1.29953e-10 -1.8487e-13 2.25819e-13 -7.73091 5.47488 -0.417314 1.2996e-10 -1.88448e-13 2.13097e-13 -2.90554 0.965183 -0.102902 1.2995e-10 -1.8805e-13 2.13892e-13 -10.2786 0.731801 -0.0259123 1.2996e-10 -1.89641e-13 2.06736e-13 -2.22167 -0.733487 0.20892 -2.03217e-16 0.0 -3.88251e-19 1.24883 -5.45297 -0.109164 6.92022e-05 4.32233 0.0238799 -0.510677 1.12951 0.081235 2.03217e-16 0.0 3.88251e-19 0.249672 -1.91924 0.0129231 0.00928364 -2.07855 0.0766842 0.496252 3.99654 -0.137944
-126.441 83.9027 3.30009 -44.7298 89.2676 -41.1449 0.428318 -1.99042 -0.455757 1.13709 2.03407 -0.122762 -2.61187 -1.7121 -1.34182 2.72728 2.16295 -1.69293 -0.0 0.0 0.0 -0.0 0.0 0.0 1.36494e-14 -3.2377e-13 3.97725e-15 22.3739 3.13099 1.20748 -3.64659 -1.55728 5.79918 0.00181386 -0.944932 -0.132736 -1.71903e-10 2.58161e-11 -1.33447e-09 -2.96253e-10 4.52884e-11 -2.30706e-09 -1.71895e-10 2.58205e-11 -1.33449e-09 7.73091 5.47488 0.417314 -1.71902e-10 2.58169e-11 -1.33447e-09 2.90554 0.965183 0.102902 -1.71894e-10 2.58168e-11 -1.33447e-09 10.2786 0.731801 0.0259123 -1.71906e-10 2.58151e-11 -1.33446e-09 2.22167 -0.733487 -0.20892 1.35399e-14 -3.23771e-13 3.70392e-15 -23.349 6.33307 -1.08662 3.8866 -1.70453 -6.13553 -0.000161417 -0.282012 0.0396325 -3.68644e-10 -1.90045e-10 1.11447e-09 -6.36e-10 -3.27915e-10 1.92692e-09 -3.68653e-10 -1.90043e-10 1.11448e-09 -7.73091 5.47488 -0.417314 -3.68645e-10 -1.90046e-10 1.11447e-09 -2.90554 0.965183 -0.102902 -3.68654e-10 -1.90046e-10 1.11447e-09 -10.2786 0.731801 -0.0259123 -3.68642e-10 -1.90047e-10 1.11446e-09 -2.22167 -0.733487 0.20892 -2.03217e-16 0.0 -3.88251e-19 0.886081 -6.81693 0.899057 0.0168712 9.4625 0.0973154 -0.0703443 -7.59924 2.11043 2.03217e-16 0.0 3.88251e-19 1.17926 -4.86302 -0.338804 -0.0534214 6.06998 -0.15015 1.32691 -3.00719 5.78725
-126.557 83.9407 3.1979 -59.6553 89.5405 -55.8208 -0.189956 -4.08036 -0.960505 2.0657 4.19622 -0.300961 -5.4756 -3.51489 -2.76906 5.7709 4.42925 -3.49572 -0.0 0.0 0.0 -0.0 0.0 0.0 1.41329e-14 -6.89199e-13 8.31168e-15 45.8838 6.43006 2.49862 -7.16014 -3.15001 11.9426 -0.00102991 -1.94161 -0.272863 -5.18928e-10 5.78953e-11 -2.91831e-09 -8.94803e-10 1.0152e-10 -5.04522e-09 -5.1892e-10 5.79004e-11 -2.91833e-09 7.73091 5.47488 0.417314 -5.18928e-10 5.7896e-11 -2.91832e-09 2.90554 0.965183 0.102902 -5.18919e-10 5.78963e-11 -2.91831e-09 10.2786 0.731801 0.0259123 -5.18932e-10 5.78954e-11 -2.9183e-09 2.22167 -0.733487 -0.20892 1.40085e-14 -6.89201e-13 8.0632e-15 -47.7631 13.0192 -2.28488 7.60022 -3.44089 -12.638 9.19536e-05 -0.578949 0.0813656 -9.45629e-10 -4.21936e-10 2.43636e-09 -1.63164e-09 -7.28083e-10 4.21245e-09 -9.45638e-10 -4.21935e-10 2.43637e-09 -7.73091 5.47488 -0.417314 -9.4563e-10 -4.21938e-10 2.43636e-09 -2.90554 0.965183 -0.102902 -9.45639e-10 -4.21939e-10 2.43635e-09 -10.2786 0.731801 -0.0259123 -9.45624e-10 -4.21938e-10 2.43635e-09 -2.22167 -0.733487 0.20892 -2.03217e-16 0.0 -3.88251e-19 0.573163 -8.23983 1.99998 0.0194096 14.8966 0.176585 1.14854 -16.7881 4.57053 2.03217e-16 0.0 3.88251e-19 2.13423 -7.96158 -0.703928 -0.0477445 14.6931 -0.401406 3.78869 -10.2143 12.2262
-126.664 83.9997 3.07933 -105.447 89.7939 -101.384 -0.78466 -5.9609 -1.42868 2.9046 6.11113 -0.464785 -8.07678 -5.12501 -4.03983 8.56681 6.46613 -5.10774 -0.0 0.0 0.0 -0.0 0.0 0.0 1.40149e-14 -9.7128e-13 1.16336e-14 66.7215 9.37616 3.66607 -10.0078 -4.48076 17.4461 -0.00770669 -2.83474 -0.398643 -7.75653e-10 7.78107e-11 -4.00384e-09 -1.33767e-09 1.36482e-10 -6.92191e-09 -7.75643e-10 7.78163e-11 -4.00387e-09 7.73091 5.47488 0.417314 -7.75653e-10 7.78113e-11 -4.00385e-09 2.90554 0.965183 0.102902 -7.75643e-10 7.78119e-11 -4.00384e-09 10.2786 0.731801 0.0259123 -7.75656e-10 7.78118e-11 -4.00383e-09 2.22167 -0.733487 -0.20892 1.38795e-14 -9.71282e-13 1.14099e-14 -69.2916 18.9711 -3.42626 10.5822 -4.87949 -18.4677 0.00068629 -0.846034 0.118909 -1.36585e-09 -5.69758e-10 3.34297e-09 -2.35687e-09 -9.8309e-10 5.78003e-09 -1.36586e-09 -5.69759e-10 3.34299e-09 -7.73091 5.47488 -0.417314 -1.36586e-09 -5.69762e-10 3.34298e-09 -2.90554 0.965183 -0.102902 -1.36586e-09 -5.69763e-10 3.34297e-09 -10.2786 0.731801 -0.0259123 -1.36585e-09 -5.69761e-10 3.34297e-09 -2.22167 -0.733487 0.20892 -2.03217e-16 0.0 -3.88251e-19 0.306442 -9.53502 2.93604 0.00861183 19.7427 0.25536 2.8217 -24.9197 6.74357 2.03217e-16 0.0 3.88251e-19 2.92829 -10.7491 -1.05714 0.0264831 22.3658 -0.6501 7.39886 -16.2383 18.3704
